<?xml version="1.0" standalone="no"?>
<!DOCTYPE svg PUBLIC "-//W3C//DTD SVG 20010904//EN"
 "http://www.w3.org/TR/2001/REC-SVG-20010904/DTD/svg10.dtd">
<svg version="1.0" xmlns="http://www.w3.org/2000/svg"
 width="500.000000pt" height="500.000000pt" viewBox="0 0 500.000000 500.000000"
 preserveAspectRatio="xMidYMid meet">

<g transform="translate(0.000000,500.000000) scale(0.100000,-0.100000)"
fill="#000000" stroke="none">
<path d="M2474 3356 c-17 -8 -38 -23 -45 -34 -8 -11 -31 -27 -52 -36 -44 -18
-73 -72 -62 -115 8 -31 43 -71 62 -71 8 0 13 -12 13 -30 l0 -30 120 0 120 0 0
30 c0 18 5 30 13 30 29 0 62 50 62 95 0 49 -19 76 -68 96 -17 7 -42 25 -56 41
-32 34 -67 42 -107 24z m95 -42 c12 -15 21 -34 21 -44 0 -25 12 -32 25 -14 27
38 79 -31 65 -86 -3 -15 -20 -33 -43 -45 -26 -14 -37 -27 -37 -42 0 -22 -3
-23 -90 -23 -88 0 -90 0 -90 24 0 17 -9 27 -30 36 -36 15 -50 37 -50 79 0 48
53 92 66 56 10 -24 24 -17 24 10 0 67 98 101 139 49z"/>
<path d="M2455 3110 c-3 -5 0 -13 8 -16 23 -8 102 0 102 11 0 14 -102 19 -110
5z"/>
<path d="M2238 3109 c-31 -18 -20 -42 44 -101 60 -53 62 -58 49 -79 -15 -25
-15 -24 57 -79 24 -18 25 -21 11 -33 -73 -58 -91 -76 -84 -87 11 -18 103 -6
152 19 l40 20 59 -24 c62 -26 128 -32 140 -14 3 6 -15 30 -42 55 l-49 44 44
38 c41 36 43 40 31 62 -12 23 -9 27 49 80 62 56 73 78 46 100 -19 16 -11 22
-241 -173 l-33 -27 -62 52 c-67 57 -191 158 -193 158 0 0 -9 -5 -18 -11z m87
-74 c33 -30 53 -54 45 -55 -8 0 -42 25 -75 55 -33 30 -53 54 -45 54 8 0 42
-24 75 -54z m453 45 c-4 -12 -110 -100 -120 -100 -20 0 -3 21 48 64 54 44 79
57 72 36z m-330 -147 l45 -37 -27 -23 c-35 -29 -38 -29 -81 8 l-35 31 23 28
c12 16 24 29 26 29 2 1 24 -16 49 -36z m201 8 l20 -28 -27 -25 c-83 -76 -272
-170 -271 -133 1 10 238 214 251 215 4 0 16 -13 27 -29z m-19 -160 c19 -16 32
-32 29 -35 -10 -11 -109 24 -109 39 0 13 14 23 35 24 6 1 26 -12 45 -28z"/>
<path d="M1062 2833 l3 -98 40 0 40 0 3 46 c2 34 8 48 20 51 9 3 225 3 479 2
507 -3 487 -5 481 58 l-3 33 -533 3 -533 2 3 -97z"/>
<path d="M2907 2923 c-12 -12 -7 -70 6 -82 10 -8 148 -10 481 -8 327 3 469 0
475 -7 5 -6 11 -29 13 -51 3 -39 4 -40 43 -40 l40 0 0 95 0 95 -526 3 c-289 1
-529 -1 -532 -5z"/>
<path d="M1064 1917 c-2 -7 -4 -52 -2 -98 l3 -84 392 -3 c387 -2 392 -2 403
18 6 12 10 33 8 48 l-3 27 -355 5 -355 5 -5 45 c-5 44 -6 45 -43 48 -25 2 -39
-1 -43 -11z"/>
<path d="M3885 1918 c-2 -7 -6 -29 -7 -48 l-3 -35 -355 -5 -355 -5 0 -45 0
-45 400 0 400 0 0 95 0 95 -38 3 c-24 2 -39 -1 -42 -10z"/>
<path d="M1970 1819 c0 -76 3 -100 13 -96 6 2 12 18 13 35 0 41 16 41 30 0 20
-59 30 -41 30 49 -1 49 -5 94 -9 101 -5 6 -24 12 -43 12 l-34 0 0 -101z m60
41 c0 -37 -26 -41 -32 -5 -6 27 -1 35 19 35 8 0 13 -12 13 -30z"/>
<path d="M2082 1823 l3 -98 38 0 c42 0 52 18 12 23 -19 3 -25 9 -25 29 0 16 7
27 20 30 11 3 20 9 20 13 0 5 -9 12 -20 15 -13 4 -20 15 -20 30 0 18 6 24 27
27 48 6 39 28 -12 28 l-46 0 3 -97z"/>
<path d="M2191 1901 c-17 -30 -14 -41 24 -82 19 -22 35 -44 35 -49 0 -16 -33
-26 -38 -12 -4 14 -32 16 -32 3 0 -16 31 -41 50 -41 20 0 50 25 50 41 0 17
-27 63 -49 83 -32 29 -28 50 10 42 25 -5 30 -3 27 12 -5 26 -64 29 -77 3z"/>
<path d="M2290 1905 c0 -8 7 -15 15 -15 11 0 15 -18 17 -82 2 -54 7 -83 16
-86 9 -3 12 18 12 82 0 70 3 86 15 86 8 0 15 7 15 15 0 11 -12 15 -45 15 -33
0 -45 -4 -45 -15z"/>
<path d="M2406 1904 c-22 -21 -22 -131 0 -162 18 -27 45 -28 67 -4 20 21 24
131 7 163 -13 23 -53 25 -74 3z m49 -84 c0 -51 -3 -65 -15 -65 -12 0 -16 16
-18 68 -3 62 -1 68 15 65 15 -3 18 -14 18 -68z"/>
<path d="M2560 1901 c-7 -14 -7 -28 0 -47 8 -19 7 -36 -2 -61 -18 -49 -3 -68
54 -68 l45 0 0 43 c0 41 -9 53 -22 32 -5 -8 -11 -8 -20 0 -11 9 -10 17 6 45
16 27 18 38 9 54 -14 27 -56 27 -70 2z m50 -20 c0 -23 -16 -36 -25 -21 -9 14
1 40 15 40 5 0 10 -9 10 -19z m-6 -132 c-11 -18 -24 -8 -24 19 1 26 1 26 15 8
8 -10 12 -23 9 -27z"/>
<path d="M2726 1912 c-3 -5 -3 -44 -1 -88 2 -43 4 -85 4 -91 1 -8 15 -13 36
-13 45 0 74 38 57 75 -6 13 -8 39 -5 58 3 24 0 38 -12 50 -17 18 -70 23 -79 9z
m59 -47 c0 -10 -5 -20 -11 -22 -13 -4 -27 24 -18 38 9 15 29 4 29 -16z m0 -85
c0 -13 -6 -25 -12 -27 -9 -3 -13 6 -13 27 0 21 4 30 13 28 6 -3 12 -15 12 -28z"/>
<path d="M2856 1831 c-9 -49 -16 -94 -16 -100 0 -21 20 -11 30 14 5 14 14 25
20 25 6 0 15 -11 20 -25 11 -29 30 -33 30 -7 0 18 -15 112 -25 160 -3 13 -13
22 -24 22 -15 0 -21 -15 -35 -89z m41 -28 c-4 -17 -4 -17 -12 0 -4 9 -4 25 0
35 8 16 8 16 12 0 3 -10 3 -26 0 -35z"/>
<path d="M2960 1820 c0 -80 3 -100 14 -100 10 0 16 13 18 38 4 46 20 45 31 -2
6 -22 15 -36 24 -36 12 0 13 6 7 28 -4 15 -7 41 -6 57 7 108 4 115 -55 115
l-33 0 0 -100z m68 47 c4 -21 -16 -49 -29 -41 -5 3 -9 19 -9 35 0 24 4 30 17
27 10 -2 19 -11 21 -21z"/>
</g>
</svg>
