<?xml version="1.0" encoding="UTF-8"?>
<svg version="1.1" viewBox="0 0 2048 1036" width="1280" height="1280" xmlns="http://www.w3.org/2000/svg">
<path transform="translate(1225,445)" d="m0 0h23l16 1 3 5 5 14 18 58 26 78 5 11 4 1 1-165 3-2 5-1h39l7 2 1 1v316l-1 15-3 2-17 1h-27l-5-2-4-6-9-25-16-50-12-36-14-41-5-9-2-1-1 40v126l-3 3-7 1h-39l-5-3-1-2v-327l4-4z" fill="#EC970C"/>
<path transform="translate(496,445)" d="m0 0h15l11 1 5 8 7 21 10 33 12 37 14 41 7 20 4 7h2l1-10 1-59v-95l3-3h49l2 1 1 219v113l-4 3h-46l-5-3-5-10-22-68-18-58-8-22-4-7v-2h-4l-1 167-2 2-12 1h-31l-7-2-2-3-1-5v-51l1-272 2-2 4-1z" fill="#EC970C"/>
<path transform="translate(1651,446)" d="m0 0h87l25 1 16 4 10 5 9 7 6 7 7 14 3 12 1 16v78l-2 17-5 13-7 10-10 9-14 8-1 5 8 26 13 41 9 30 7 22v7l-3 3-4 1h-42l-4-4-7-19-20-65-12-38-3-5h-15l-2 1-1 125-4 4-3 1h-43l-4-3-1-3-1-32v-292l4-5zm73 55-23 1-1 3v85l2 5h47l6-3 3-3 2-10v-66l-3-7-6-4-14-1z" fill="#EC970C"/>
<path transform="translate(318,446)" d="m0 0h36l20 1 16 4 9 5 9 8 6 10 4 11 1 6 1 63v178l-3 14-8 16-7 8-10 7-14 4-33 1h-24l-29-1-13-4-10-6-7-6-8-13-3-11-1-10v-217l1-26 4-13 7-11 10-9 12-5 15-3zm1 55-8 2-5 4-2 6v202l2 6 5 4 6 2h35l8-4 3-4 1-3 1-11v-192l-4-8-4-3-8-1z" fill="#EC970C"/>
<path transform="translate(1919,446)" d="m0 0h32l24 1 15 2 13 4 9 6 8 9 5 10 3 11 1 7 1 28-1 7-7 3h-41l-4-3-3-19-5-8-6-2h-34l-9 2-3 5-1 5v60l2 8 4 4 68 2 8 2 10 5 7 6 7 10 5 12 2 8 1 21v65l-1 20-4 15-5 10-8 9-10 6-10 3-9 1-48 1h-20l-18-2-12-5-8-6-8-9-6-12-3-9-1-6v-34l5-6h32l15 1 3 3 2 9 1 12 3 5 6 4 38-1 6-3 3-4 1-3 1-28v-28l-1-10-4-6-3-2-65-1-12-3-8-4-10-9-6-9-5-13-1-4-1-20v-28l1-60 4-14 6-11 8-9 13-7 13-3z" fill="#EC970D"/>
<path transform="translate(213,272)" d="m0 0h592l5 3 1 1v48l-4 4h-521l-27 1-2 3v47l-2 5-3 2-7 1h-20l-19-1-5-4-2-5 1-98 3-5 1-1z" fill="#C82719"/>
<path transform="translate(1272,272)" d="m0 0h571l17 1 3 3 1 71v33l-4 5-2 1-9 1-36-1-4-4-1-2-1-44-2-6-7-2h-541l-3-2-1-3v-45l3-5z" fill="#C82619"/>
<path transform="translate(935,445)" d="m0 0h50l10 1 3 7 12 58 11 55 11 56 25 124 5 22v10l-3 3-23 1h-17l-8-1-4-5-5-24-8-50-2-3h-60l-2 1-3 12-10 59-3 8-2 2h-50l-2-3v-10l11-51 12-59 11-55 17-83 11-58 4-14 2-2zm25 97-3 6-4 20-10 53-2 13v6l2 3 5 1h13l17-1 3-3v-9l-5-29-9-45-3-10-3-5z" fill="#EC970D"/>
<path transform="translate(1446,445)" d="m0 0h122l29 1 4 1 1 4v34l-1 11-4 4-87 1h-22l-1 26v58l65 1 1 1v51l-1 2-3 1h-61v84h104l9 2 1 3v41l-1 7-3 2-13 1h-148l-4-2-1-2-1-35v-290l2-5 1-1z" fill="#EC970D"/>
<path transform="translate(88,447)" d="m0 0h66l13 2 10 4 9 6 7 7 5 9 4 11 1 7v55l-4 3-15 1-32-1-3-2-1-6-1-31-2-6-9-3h-33l-8 2-5 4-1 5v200l2 7 5 4 3 1 11 1h23l8-2 4-5 2-5 1-35 3-2 20-1h25l7 3 1 1v49l-4 18-7 14-8 9-10 6-13 4-11 1h-54l-22-1-13-4-10-6-8-8-8-14-3-10-1-23v-216l2-16 7-14 7-9 8-6 11-5z" fill="#EC970D"/>
<path transform="translate(206,842)" d="m0 0h42l7 3 2 4 1 47 1 2 8 1 391 1 5 3v39l-2 11-3 2-8 1h-443l-5-3-2-7-1-74v-23l3-5z" fill="#C82619"/>
<path transform="translate(1816,842)" d="m0 0h43l5 4v104l-4 5-2 1h-448l-6-2-2-3-1-8v-35l3-7 2-1 399-1 1-4 2-46 3-5z" fill="#C82618"/>
<path transform="translate(756,446)" d="m0 0h87l10 1 3 2v45l-2 6-2 1-52 2-1 2v266l-2 10-2 1h-47l-4-2-1-2-1-10v-263l-3-3-46-1-5-2-2-7v-40l2-4 2-1z" fill="#EC970D"/>
<path transform="translate(1125,445)" d="m0 0h16l16 1 3 5v326l-3 4-3 1h-39l-7-1-4-5v-322l2-7 3-1z" fill="#EC970D"/>
<path transform="translate(1178,165)" d="m0 0 8 2 8 7 5 8 1 2v7l-6 9-10 9-11 9-14 12-15 13-11 9-3 6v7l4 8 6 9v5l-5 5-10 9-16 12-17 13-2 4 7 7 11 9 15 13 13 11 10 8 2 5-5 6-5 2-13 2h-16l-16-3-19-6-17-7-24-11-5 1-30 14-20 7-18 4-9 1h-14l-14-3-6-4-1-5 7-8 14-11 13-11 8-7 14-12 2-4-12-10-17-13-12-9-8-7-1-2v-6l4-6 5-8v-11l-7-8-11-9-42-36-8-8-2-4 1-8 6-9 7-6 4-2h8l11 7 15 13 13 11 11 9 14 11 15 13 14 12 11 10 14 11 16 13 7 6 4-1 11-8 9-8 10-8 14-12 10-9 11-9 14-12 9-7 14-12 11-9 14-12 11-8zm-296 15-4 5 1 5 12 11 11 9 14 12 13 11 13 12 5 4 4-2 5-5 1-4-9-8-11-9-12-10-11-9-13-11-14-11zm295 0-9 7-17 14-13 11-11 9-17 14-4 5 8 9 4-2 11-9 11-10 11-9 10-9 10-8 10-9 5-5-1-4-4-4zm-209 69-9 9-9 11-7 8-2 3 1 5 8 8 11 9 13 10 11 7 6-1 16-13 13-13-3-5-13-11-28-22-7-5zm125 1-16 13-14 11-14 12-14 11-13 11-14 12-10 8-13 11-11 9-15 13-11 9-6 7 4 2 16-1 17-4 21-8 25-12 16-9 30-20 18-13 15-12 9-7 10-9-1-5-13-15-9-11-3-3zm-19 88-9 5-11 8-5 4 2 4 17 9 20 7 12 3 9 1h9l3-1-1-4-11-10-11-9-14-12-7-5z" fill="#FDF6EB"/>
<path transform="translate(1027,24)" d="m0 0h9l12 2 12 5 10 7 7 7 10 16v2l12 2 12 4 10 6 10 9 7 10 5 11 2 10v13l-4 16-5 10-8 10-9 7-10 5-10 4-1 7-1 23-3 2h-126l-3-3-1-26-1-3-19-9-10-9-7-8-6-13-2-8v-20l4-13 7-13 7-8 14-9 14-5 9-2 4-5 7-11 7-8 10-7 11-5zm-1 13-9 2-10 5-10 9-8 12-3 11-1 15-3 3-5-1-3-3-2-12-8 1-12 5-10 9-6 9-4 12v17l4 11 6 9 10 9 10 5 13 5 2 1 1 23 2 5h101l2-1 1-3 1-23 3-3 16-5 9-5 9-8 6-10 3-10v-18l-4-12-8-11-11-8-13-4-4 1-1 10-4 5h-5l-3-3-1-3-1-16-4-11-8-11-9-7-12-5-5-1z" fill="#FDF6EB"/>
<path transform="translate(1156,843)" d="m0 0h26l8 2 8 5 5 6 3 7 1 6v10l-3 10-5 7 1 4 7 11 3 10v11l-3 10-6 8-9 5-5 1h-33l-1-1-1-7v-102l1-2zm19 16-5 2-1 1v20l1 7 1 1h10l5-3 3-4 1-4v-9l-3-7-4-3zm-1 46-4 2-1 2v13l1 17 2 2h9l6-4 4-6 1-4v-9l-4-8-6-4z" fill="#FDF6EB"/>
<path transform="translate(721,843)" d="m0 0h30l10 3 7 6 4 10 1 12v11l-2 12-6 9-1 4 8 29 2 9v8h-14l-3-5-4-14-5-20-2-3-9 1-1 1v33l-1 7-10 1-5-1-1-3v-109zm16 17-2 2v21l1 13 1 1h13l5-4 2-6v-19l-4-7-2-1z" fill="#FDF6EB"/>
<path transform="translate(1289,843)" d="m0 0h32l11 4 6 8 3 12v21l-3 10-6 11 10 40v7h-14l-3-6-8-31-1-5h-12l-1 41-1 1h-13l-2-3v-108zm21 16-6 1-1 2v28l1 7 1 1h10l6-3 3-4 1-4v-20l-4-6-1-1z" fill="#FDF6EB"/>
<path transform="translate(1072,842)" d="m0 0h13l8 3 6 7 3 8v10l-4 10-9 13-6 8 2 6 9 12 2 2 4-8 3-9 12 2 2 1-3 12-6 16 1 3 8 5 1 2v7l-2 4-10-3-6-3-6 1-8 5-6 2h-8l-7-2-9-8-4-9v-14l4-11 8-13-3-10-6-15-1-11 3-10 6-8 6-4zm5 11-6 5-2 5v10l5 10h4l7-7 4-9-1-8-4-5zm-5 64-5 7-1 3v10l3 5 3 2h8l6-4 1-4-12-18z" fill="#FDF6EB"/>
<path transform="translate(984,842)" d="m0 0h13l8 3 5 5 4 5 3 8v69l-2 8-3 6-5 6-10 5h-15l-9-5-7-9-2-6v-76l5-10 8-6zm3 16-5 3-3 4v68l3 6 9 3 5-2 4-5 1-14v-54l-4-6-5-3z" fill="#FDF6EB"/>
<path transform="translate(1237,843)" d="m0 0h19l3 2 6 35 7 41 5 27v8l-10 1-5-2-3-9-3-14-2-1h-16l-3 18-3 6-1 1h-11l-2-1v-10l6-37 8-46 3-16zm8 35-4 27v10h12l1-5-4-25-2-7z" fill="#FDF6EB"/>
<path transform="translate(790,843)" d="m0 0h43l1 1v15h-32v32l21 1 2 1v12l-1 2-3 1h-19l1 32 30 1 1 1v9l-3 5h-45l-1-2v-108l1-2z" fill="#FDF6EB"/>
<path transform="translate(862,842)" d="m0 0h14l10 4 6 7 3 7v5l-5 3-7 1-4-5-5-6-7-1-6 5-1 3v8l5 10 6 7 8 7 7 7 7 11 4 13-1 11-5 10-7 6-10 3-13-1-8-4-6-5-5-10-1-10 2-1 11-1 3 3 4 10 4 3h7l6-4 1-2v-12l-6-9-22-22-7-11-2-10 1-12 4-8 5-5 7-4z" fill="#FDF6EB"/>
<path transform="translate(905,843)" d="m0 0h50l2 2v13l-1 1-18 1v88l-1 8h-13l-2-3v-93l-16-1-2-2-1-10z" fill="#FDF6EB"/>
<path transform="translate(1e3 167)" d="m0 0h57l5 4v5l-5 4-7 1h-50l-5-3-2-3 1-4 3-3z" fill="#FDF6EB"/>
<path transform="translate(1033,205)" d="m0 0h17l10 1 4 2-1 2 3 1v1h-62l1-2 4-2v-1h5l4-1z" fill="#FDFDFD"/>
<path transform="translate(985,207)" d="m0 0h16l-1 2 3 2-1 1h-29l-1-2 5-1v-1z" fill="#FDFCFC"/>
<path transform="translate(989,249)" d="m0 0 8 6 16 13 4 4-5-2-7-4-7-3-9-12z" fill="#FDFDFD"/>
<path transform="translate(937,938)" d="m0 0h1v10l-1 8h-13l-1-3 7-1 3-1 2-5 1-7z" fill="#FDFCFC"/>
<path transform="translate(1111,941)" d="m0 0 5 1 2 3v7l-2 4-6-2 4-1v-6l-2-4z" fill="#FDFCFC"/>
<path transform="translate(1340,949)" d="m0 0h2v7h-14l-2-4 7 1 6-2z" fill="#FDFDFD"/>
<path transform="translate(819,892)" d="m0 0 6 1v12l-2 2-1-3v-9z" fill="#FDFDFD"/>
<path transform="translate(772,952)" d="m0 0 2 4h-13l1-2z" fill="#FDFDFD"/>
</svg>
